<svg xmlns="http://www.w3.org/2000/svg" width="48" height="48" fill="none" viewBox="0 0 48 48">
  <path fill="currentColor" fill-rule="evenodd" d="M23.885 39.656V29.199c0-21.454-6.687-22.865-13.165-20.202C2.95 12.192 3.138 26.5 23.885 39.656Zm.23 0V29.199c0-21.454 6.687-22.865 13.165-20.202 7.77 3.195 7.582 17.503-13.165 30.659Z" clip-rule="evenodd"/>
  <path fill="currentColor" d="m23.885 39.656-1.339 2.111a2.5 2.5 0 0 0 3.839-2.111h-2.5ZM10.72 8.997l.95 2.313-.95-2.313Zm13.395 30.659h-2.5a2.5 2.5 0 0 0 3.839 2.111l-1.339-2.111ZM37.28 8.997l-.95 2.313.95-2.313ZM21.385 29.2v10.457h5V29.199h-5ZM11.67 11.31c1.443-.593 2.677-.862 3.689-.8.922.055 1.749.384 2.531 1.236.845.92 1.742 2.57 2.415 5.442.669 2.857 1.08 6.76 1.08 12.012h5c0-5.477-.425-9.794-1.212-13.153-.783-3.343-1.964-5.902-3.6-7.683-1.7-1.85-3.758-2.715-5.913-2.845-2.063-.125-4.095.429-5.891 1.167l1.901 4.625Zm13.554 26.235C15.138 31.15 10.44 24.711 9.004 19.88c-1.419-4.78.308-7.6 2.666-8.57l-1.9-4.626C4.358 8.91 2.294 14.84 4.213 21.302c1.903 6.41 7.672 13.703 18.334 20.464l2.678-4.223ZM21.615 29.2v10.457h5V29.199h-5ZM38.231 6.685c-1.796-.738-3.828-1.292-5.891-1.167-2.155.13-4.214.995-5.913 2.845-1.636 1.781-2.817 4.34-3.6 7.683-.787 3.359-1.212 7.677-1.212 13.153h5c0-5.251.411-9.155 1.08-12.012.673-2.872 1.57-4.522 2.415-5.442.782-.852 1.61-1.18 2.531-1.236 1.012-.062 2.246.207 3.689.8l1.901-4.624ZM25.454 41.767c10.662-6.76 16.43-14.054 18.334-20.464 1.92-6.462-.145-12.392-5.557-14.618L36.33 11.31c2.358.97 4.085 3.79 2.665 8.57-1.435 4.831-6.133 11.27-16.219 17.664l2.678 4.223Z"/>
</svg>
