<svg xmlns="http://www.w3.org/2000/svg" width="48" height="48" fill="none" viewBox="0 0 48 48">
  <path stroke="currentColor" stroke-dasharray="4 4" stroke-linecap="round" stroke-width="2" d="M5 24h38"/>
  <path stroke="currentColor" stroke-linecap="round" stroke-width="5" d="M10 43c4.737-11.018 16.342-25.04 27 0"/>
  <path fill="currentColor" fill-rule="evenodd" d="M39.3 5.98a2.5 2.5 0 0 0-4.6-1.96c-2.595 6.098-5.107 9.456-7.268 11.107-2.008 1.536-3.715 1.62-5.299 1.045-1.775-.645-3.649-2.23-5.44-4.536-1.761-2.267-3.274-5.014-4.396-7.623a2.5 2.5 0 1 0-4.594 1.974c1.247 2.9 2.96 6.038 5.04 8.716 2.05 2.639 4.633 5.06 7.683 6.169 3.242 1.177 6.73.761 10.044-1.773 3.16-2.417 6.096-6.696 8.83-13.12Zm-1.38-.588a1 1 0 1 0-1.84-.784c-2.637 6.195-5.276 9.83-7.736 11.711-2.4 1.835-4.642 2.019-6.723 1.263-2.158-.784-4.244-2.62-6.113-5.026-1.857-2.39-3.43-5.254-4.59-7.951a1 1 0 1 0-1.837.79c1.21 2.812 2.863 5.833 4.848 8.388 1.972 2.54 4.341 4.71 7.01 5.679 2.744.997 5.698.68 8.62-1.554 2.86-2.188 5.669-6.19 8.361-12.516Z" clip-rule="evenodd"/>
</svg>
