<svg xmlns="http://www.w3.org/2000/svg" width="48" height="48" fill="none" viewBox="0 0 48 48">
  <path fill="currentColor" fill-rule="evenodd" d="M8 43a3 3 0 0 1-3-3V8a3 3 0 0 1 3-3h25.069A3 3 0 0 1 35.4 6.112l6.932 8.563A3 3 0 0 1 43 16.562V40a3 3 0 0 1-3 3H8Zm3.628-32.023v6.604a2 2 0 0 0 2 2h17.21a2 2 0 0 0 2-2v-6.604a2 2 0 0 0-2-2h-17.21a2 2 0 0 0-2 2Zm13.657.807v4.767a1 1 0 0 0 1 1h3.874a1 1 0 0 0 1-1v-4.767a1 1 0 0 0-1-1h-3.874a1 1 0 0 0-1 1Zm-11.657 13.1a2 2 0 0 0-2 2v9.697a2 2 0 0 0 2 2h20.744a2 2 0 0 0 2-2v-9.697a2 2 0 0 0-2-2H13.628Z" clip-rule="evenodd"/>
  <path stroke="currentColor" stroke-linecap="round" stroke-linejoin="round" stroke-width="2" d="M15 28h18m-18 4h18m-18 4h18"/>
</svg>
