<svg xmlns="http://www.w3.org/2000/svg" width="48" height="48" fill="none" viewBox="0 0 48 48">
  <path stroke="currentColor" stroke-linecap="round" stroke-linejoin="round" stroke-opacity=".33" stroke-width="5" d="M5 26C9.5 73.9 19 5 24 5s14 68.9 19 21"/>
  <path fill="currentColor" fill-rule="evenodd" d="M4 24a1 1 0 0 1 1-1h1.9a1 1 0 1 1 0 2H5a1 1 0 0 1-1-1Zm5.7 0a1 1 0 0 1 1-1h3.8a1 1 0 1 1 0 2h-3.8a1 1 0 0 1-1-1Zm7.6 0a1 1 0 0 1 1-1h3.8a1 1 0 1 1 0 2h-3.8a1 1 0 0 1-1-1Zm7.6 0a1 1 0 0 1 1-1h3.8a1 1 0 1 1 0 2h-3.8a1 1 0 0 1-1-1Zm7.6 0a1 1 0 0 1 1-1h3.8a1 1 0 1 1 0 2h-3.8a1 1 0 0 1-1-1Zm7.6 0a1 1 0 0 1 1-1H43a1 1 0 1 1 0 2h-1.9a1 1 0 0 1-1-1ZM15.5 5A2.5 2.5 0 0 1 18 2.5h12A2.5 2.5 0 0 1 32.5 5v35.5H43a2.5 2.5 0 0 1 0 5H30a2.5 2.5 0 0 1-2.5-2.5V7.5h-7V43a2.5 2.5 0 0 1-2.5 2.5H5a2.5 2.5 0 0 1 0-5h10.5V5Z" clip-rule="evenodd"/>
</svg>
