<svg xmlns="http://www.w3.org/2000/svg" width="48" height="48" fill="none" viewBox="0 0 48 48">
  <path stroke="currentColor" stroke-dasharray="4 4" stroke-linecap="round" stroke-width="2" d="M5 24h38"/>
  <path fill="currentColor" fill-rule="evenodd" d="M25.706 3.672a2.5 2.5 0 0 0-3.412 0l-7.5 7a2.5 2.5 0 1 0 3.412 3.656l3.294-3.075v26.494l-3.294-3.075a2.5 2.5 0 1 0-3.412 3.656l7.5 7a2.5 2.5 0 0 0 3.412 0l7.5-7a2.5 2.5 0 1 0-3.412-3.656L26.5 37.747V11.253l3.294 3.075a2.5 2.5 0 1 0 3.412-3.656l-7.5-7ZM24.682 4.77a1 1 0 0 0-1.364 0l-7.5 7a1 1 0 0 0 1.364 1.462L23 7.801V24a1 1 0 1 0 2 0V7.801l5.818 5.43a1 1 0 0 0 1.364-1.462l-7.5-7Z" clip-rule="evenodd"/>
</svg>
