<svg width="800" height="300" viewBox="0 0 800 300" fill="none" xmlns="http://www.w3.org/2000/svg">
<circle cx="687" cy="49" r="15" fill="black"/>
<circle cx="687" cy="192" r="15" fill="black"/>
<path d="M686.5 192V49" stroke="black" stroke-width="12" stroke-linecap="round" stroke-linejoin="round"/>
<rect x="655" y="121" width="64" height="22" rx="11" fill="black"/>
<circle cx="574" cy="192" r="15" fill="black"/>
<circle cx="628" cy="138" r="15" fill="black"/>
<path d="M574 201V169C574 151.879 587.879 138 605 138H637" stroke="black" stroke-width="12" stroke-linecap="round" stroke-linejoin="round"/>
<circle cx="509.5" cy="169.5" r="31.5" stroke="black" stroke-width="12"/>
<circle cx="428" cy="49" r="15" fill="black"/>
<circle cx="428" cy="192" r="15" fill="black"/>
<path d="M427.5 192V49" stroke="black" stroke-width="12" stroke-linecap="round" stroke-linejoin="round"/>
<rect x="396" y="85" width="64" height="22" rx="11" fill="black"/>
<circle cx="306" cy="192" r="15" fill="black"/>
<circle cx="369" cy="192" r="15" fill="black"/>
<path d="M306 201V169.5C306 152.103 320.103 138 337.5 138V138C354.897 138 369 152.103 369 169.5V201" stroke="black" stroke-width="12" stroke-linecap="round" stroke-linejoin="round"/>
<circle cx="241.5" cy="169.5" r="31.5" stroke="black" stroke-width="12"/>
<path d="M177 67H150.5C115.982 67 88 94.9822 88 129.5V129.5C88 164.018 115.982 192 150.5 192H177" stroke="black" stroke-width="12" stroke-linecap="round" stroke-linejoin="round"/>
<circle cx="177" cy="67" r="15" fill="black"/>
<circle cx="177" cy="192" r="15" fill="black"/>
<path d="M630.571 262.176V222H694.891L714.779 242.088L694.891 262.176H650.428H630.571Z" fill="#7FB34B" stroke="black" stroke-width="6"/>
<path d="M562.231 262.176V222H626.551L646.438 242.088L626.551 262.176H582.088H562.231Z" fill="#4A5899" stroke="black" stroke-width="6"/>
<path d="M493.89 262.176V222H558.21L578.097 242.088L558.21 262.176H513.747H493.89Z" fill="#40A98E" stroke="black" stroke-width="6"/>
<path d="M425.549 262.176V222H489.869L509.756 242.088L489.869 262.176H445.406H425.549Z" fill="#EC368D" stroke="black" stroke-width="6"/>
<path d="M357.208 262.176V222H421.529L441.416 242.088L421.529 262.176H377.066H357.208Z" fill="#7FB34B" stroke="black" stroke-width="6"/>
<path d="M289.791 262.176V222H354.111L373.999 242.088L354.111 262.176H309.648H289.791Z" fill="#4A5899" stroke="black" stroke-width="6"/>
<path d="M221.451 262.176V222H285.771L305.658 242.088L285.771 262.176H241.308H221.451Z" fill="#40A98E" stroke="black" stroke-width="6"/>
<path d="M153.11 262.176V222H217.43L237.317 242.088L217.43 262.176H172.967H153.11Z" fill="#EC368D" stroke="black" stroke-width="6"/>
<mask id="path-28-inside-1_159_4" fill="white">
<path fill-rule="evenodd" clip-rule="evenodd" d="M82 265.176H104.626H150.341L173.198 242.088L150.341 219H82L104.857 242.088L82 265.176Z"/>
</mask>
<path fill-rule="evenodd" clip-rule="evenodd" d="M82 265.176H104.626H150.341L173.198 242.088L150.341 219H82L104.857 242.088L82 265.176Z" fill="#F34216"/>
<path d="M82 265.176L77.7361 260.955L67.617 271.176H82V265.176ZM150.341 265.176V271.176H152.844L154.605 269.397L150.341 265.176ZM173.198 242.088L177.462 246.309L181.641 242.088L177.462 237.867L173.198 242.088ZM150.341 219L154.605 214.779L152.844 213H150.341V219ZM82 219V213H67.617L77.7361 223.221L82 219ZM104.857 242.088L109.121 246.309L113.3 242.088L109.121 237.867L104.857 242.088ZM82 271.176H104.626V259.176H82V271.176ZM104.626 271.176H150.341V259.176H104.626V271.176ZM154.605 269.397L177.462 246.309L168.934 237.867L146.077 260.955L154.605 269.397ZM177.462 237.867L154.605 214.779L146.077 223.221L168.934 246.309L177.462 237.867ZM150.341 213H82V225H150.341V213ZM109.121 237.867L86.2639 214.779L77.7361 223.221L100.593 246.309L109.121 237.867ZM86.2639 269.397L109.121 246.309L100.593 237.867L77.7361 260.955L86.2639 269.397Z" fill="black" mask="url(#path-28-inside-1_159_4)"/>
</svg>
