<svg width="800" height="300" viewBox="0 0 800 300" fill="none" xmlns="http://www.w3.org/2000/svg">
<path fill-rule="evenodd" clip-rule="evenodd" d="M557.292 157.842L476.739 149.938V207H690L687.826 145.721L557.292 157.842ZM208 149.938L289.587 158.328L369 149.938V207H198.509L208 149.938ZM53.2344 277.172L87.9754 242.08L53.2761 207H701.144L735.883 242.086L701.145 277.172H53.2344Z" fill="white"/>
<path d="M698.5 66.5725C704.216 62.8246 708 56.3592 708 49C708 37.402 698.598 28 687 28C675.402 28 666 37.402 666 49C666 55.9218 669.349 62.0533 674.5 65.8749V115H666C656.611 115 649 122.611 649 132C649 141.389 656.611 149 666 149H674.5V175.125C669.349 178.947 666 185.078 666 192C666 203.598 675.402 213 687 213C698.598 213 708 203.598 708 192C708 184.641 704.216 178.175 698.5 174.427V149H708C717.389 149 725 141.389 725 132C725 122.611 717.389 115 708 115H698.5V66.5725Z" fill="black" stroke="white" stroke-width="12"/>
<path d="M628 159C639.598 159 649 149.598 649 138C649 126.402 639.598 117 628 117C620.857 117 614.556 120.566 610.766 126H605C581.252 126 562 145.252 562 169V174.766C556.566 178.556 553 184.857 553 192C553 203.598 562.402 213 574 213C585.598 213 595 203.598 595 192C595 184.857 591.434 178.556 586 174.766V169C586 158.507 594.507 150 605 150H610.766C614.556 155.434 620.857 159 628 159Z" fill="black" stroke="white" stroke-width="12" stroke-linecap="round" stroke-linejoin="round"/>
<path d="M529 169.5C529 180.27 520.27 189 509.5 189C498.73 189 490 180.27 490 169.5C490 158.73 498.73 150 509.5 150C520.27 150 529 158.73 529 169.5ZM509.5 213C533.524 213 553 193.524 553 169.5C553 145.476 533.524 126 509.5 126C485.476 126 466 145.476 466 169.5C466 193.524 485.476 213 509.5 213Z" fill="black" stroke="white" stroke-width="12"/>
<path d="M439.5 66.5725C445.216 62.8246 449 56.3592 449 49C449 37.402 439.598 28 428 28C416.402 28 407 37.402 407 49C407 55.9218 410.349 62.0533 415.5 65.8749V79H407C397.611 79 390 86.6112 390 96C390 105.389 397.611 113 407 113H415.5V175.125C410.349 178.947 407 185.078 407 192C407 203.598 416.402 213 428 213C439.598 213 449 203.598 449 192C449 184.641 445.216 178.175 439.5 174.428V113H449C458.389 113 466 105.389 466 96C466 86.6112 458.389 79 449 79H439.5V66.5725Z" fill="black" stroke="white" stroke-width="12"/>
<path d="M318 169.5C318 158.73 326.73 150 337.5 150C348.27 150 357 158.73 357 169.5V174.766C351.566 178.556 348 184.857 348 192C348 203.598 357.402 213 369 213C380.598 213 390 203.598 390 192C390 184.857 386.434 178.556 381 174.766V169.5C381 145.476 361.524 126 337.5 126C313.476 126 294 145.476 294 169.5V174.766C288.566 178.556 285 184.857 285 192C285 203.598 294.402 213 306 213C317.598 213 327 203.598 327 192C327 184.857 323.434 178.556 318 174.766V169.5Z" fill="black" stroke="white" stroke-width="12" stroke-linecap="round" stroke-linejoin="round"/>
<path d="M261 169.5C261 180.27 252.27 189 241.5 189C230.73 189 222 180.27 222 169.5C222 158.73 230.73 150 241.5 150C252.27 150 261 158.73 261 169.5ZM241.5 213C265.524 213 285 193.524 285 169.5C285 145.476 265.524 126 241.5 126C217.476 126 198 145.476 198 169.5C198 193.524 217.476 213 241.5 213Z" fill="black" stroke="white" stroke-width="12"/>
<path d="M177 88C188.598 88 198 78.598 198 67C198 55.402 188.598 46 177 46C169.857 46 163.556 49.5656 159.766 55H150.5C109.355 55 76 88.3548 76 129.5C76 170.645 109.355 204 150.5 204H159.766C163.556 209.434 169.857 213 177 213C188.598 213 198 203.598 198 192C198 180.402 188.598 171 177 171C169.857 171 163.556 174.566 159.766 180H150.5C122.61 180 100 157.39 100 129.5C100 101.61 122.61 79 150.5 79H159.766C163.556 84.4344 169.857 88 177 88Z" fill="black" stroke="white" stroke-width="12"/>
<path d="M630.571 262.176V222H694.891L714.779 242.088L694.891 262.176H650.428H630.571Z" fill="#7FB34B" stroke="black" stroke-width="6"/>
<path d="M562.231 262.176V222H626.551L646.438 242.088L626.551 262.176H582.088H562.231Z" fill="#4A5899" stroke="black" stroke-width="6"/>
<path d="M493.89 262.176V222H558.21L578.097 242.088L558.21 262.176H513.747H493.89Z" fill="#40A98E" stroke="black" stroke-width="6"/>
<path d="M425.549 262.176V222H489.869L509.756 242.088L489.869 262.176H445.406H425.549Z" fill="#EC368D" stroke="black" stroke-width="6"/>
<path d="M357.208 262.176V222H421.528L441.416 242.088L421.528 262.176H377.066H357.208Z" fill="#7FB34B" stroke="black" stroke-width="6"/>
<path d="M289.791 262.176V222H354.111L373.999 242.088L354.111 262.176H309.648H289.791Z" fill="#4A5899" stroke="black" stroke-width="6"/>
<path d="M221.451 262.176V222H285.771L305.658 242.088L285.771 262.176H241.308H221.451Z" fill="#40A98E" stroke="black" stroke-width="6"/>
<path d="M153.11 262.176V222H217.43L237.317 242.088L217.43 262.176H172.967H153.11Z" fill="#EC368D" stroke="black" stroke-width="6"/>
<mask id="path-17-inside-1_168_824" fill="white">
<path fill-rule="evenodd" clip-rule="evenodd" d="M82 265.176H104.626H150.341L173.198 242.088L150.341 219H82L104.857 242.088L82 265.176Z"/>
</mask>
<path fill-rule="evenodd" clip-rule="evenodd" d="M82 265.176H104.626H150.341L173.198 242.088L150.341 219H82L104.857 242.088L82 265.176Z" fill="#F34216"/>
<path d="M82 265.176L77.7361 260.955L67.617 271.176H82V265.176ZM150.341 265.176V271.176H152.844L154.605 269.397L150.341 265.176ZM173.198 242.088L177.462 246.309L181.641 242.088L177.462 237.867L173.198 242.088ZM150.341 219L154.605 214.779L152.844 213H150.341V219ZM82 219V213H67.617L77.7361 223.221L82 219ZM104.857 242.088L109.121 246.309L113.3 242.088L109.121 237.867L104.857 242.088ZM82 271.176H104.626V259.176H82V271.176ZM104.626 271.176H150.341V259.176H104.626V271.176ZM154.605 269.397L177.462 246.309L168.934 237.867L146.077 260.955L154.605 269.397ZM177.462 237.867L154.605 214.779L146.077 223.221L168.934 246.309L177.462 237.867ZM150.341 213H82V225H150.341V213ZM109.121 237.867L86.2639 214.779L77.7361 223.221L100.593 246.309L109.121 237.867ZM86.2639 269.397L109.121 246.309L100.593 237.867L77.7361 260.955L86.2639 269.397Z" fill="black" mask="url(#path-17-inside-1_168_824)"/>
</svg>
